<svg width="987" height="77" viewBox="0 0 987 77" fill="none" xmlns="http://www.w3.org/2000/svg">
<path d="M0.72086 75V1.49999H32.5359C39.1159 1.49999 44.7859 2.585 49.5459 4.755C54.3059 6.85499 57.9809 9.9 60.5709 13.89C63.1609 17.88 64.4559 22.64 64.4559 28.17C64.4559 33.63 63.1609 38.355 60.5709 42.345C57.9809 46.335 54.3059 49.415 49.5459 51.585C44.7859 53.685 39.1159 54.735 32.5359 54.735H10.1709L17.7309 47.07V75H0.72086ZM17.7309 48.96L10.1709 40.875H31.5909C36.8409 40.875 40.7609 39.755 43.3509 37.515C45.9409 35.275 47.2359 32.16 47.2359 28.17C47.2359 24.11 45.9409 20.96 43.3509 18.72C40.7609 16.48 36.8409 15.36 31.5909 15.36H10.1709L17.7309 7.275V48.96ZM127 1.49999H144.01V75H127V1.49999ZM93.6098 75H76.5998V1.49999H93.6098V75ZM128.26 44.865H92.3498V30.48H128.26V44.865ZM161.4 75V1.49999H178.41V75H161.4ZM195.853 75V1.49999H209.923L241.213 53.37H233.758L264.523 1.49999H278.488L278.698 75H262.738L262.633 25.965H265.573L241.003 67.23H233.338L208.243 25.965H211.813V75H195.853ZM361.572 76.26C355.762 76.26 350.372 75.315 345.402 73.425C340.502 71.535 336.232 68.875 332.592 65.445C329.022 62.015 326.222 57.99 324.192 53.37C322.232 48.75 321.252 43.71 321.252 38.25C321.252 32.79 322.232 27.75 324.192 23.13C326.222 18.51 329.057 14.485 332.697 11.055C336.337 7.625 340.607 4.96499 345.507 3.07499C350.407 1.185 355.727 0.239999 361.467 0.239999C367.277 0.239999 372.597 1.185 377.427 3.07499C382.327 4.96499 386.562 7.625 390.132 11.055C393.772 14.485 396.607 18.51 398.637 23.13C400.667 27.68 401.682 32.72 401.682 38.25C401.682 43.71 400.667 48.785 398.637 53.475C396.607 58.095 393.772 62.12 390.132 65.55C386.562 68.91 382.327 71.535 377.427 73.425C372.597 75.315 367.312 76.26 361.572 76.26ZM361.467 61.77C364.757 61.77 367.767 61.21 370.497 60.09C373.297 58.97 375.747 57.36 377.847 55.26C379.947 53.16 381.557 50.675 382.677 47.805C383.867 44.935 384.462 41.75 384.462 38.25C384.462 34.75 383.867 31.565 382.677 28.695C381.557 25.825 379.947 23.34 377.847 21.24C375.817 19.14 373.402 17.53 370.602 16.41C367.802 15.29 364.757 14.73 361.467 14.73C358.177 14.73 355.132 15.29 352.332 16.41C349.602 17.53 347.187 19.14 345.087 21.24C342.987 23.34 341.342 25.825 340.152 28.695C339.032 31.565 338.472 34.75 338.472 38.25C338.472 41.68 339.032 44.865 340.152 47.805C341.342 50.675 342.952 53.16 344.982 55.26C347.082 57.36 349.532 58.97 352.332 60.09C355.132 61.21 358.177 61.77 361.467 61.77ZM430.216 34.575H465.496V48.225H430.216V34.575ZM431.476 75H414.466V1.49999H470.011V15.15H431.476V75ZM526.488 75V15.36H502.968V1.49999H567.018V15.36H543.498V75H526.488ZM626.57 1.49999H643.58V75H626.57V1.49999ZM593.18 75H576.17V1.49999H593.18V75ZM627.83 44.865H591.92V30.48H627.83V44.865ZM676.615 31.11H712V44.34H676.615V31.11ZM677.875 61.35H717.88V75H660.97V1.49999H716.515V15.15H677.875V61.35ZM761.151 75V1.49999H794.541C802.521 1.49999 809.556 3.04 815.646 6.12C821.736 9.13 826.496 13.365 829.926 18.825C833.356 24.285 835.071 30.76 835.071 38.25C835.071 45.67 833.356 52.145 829.926 57.675C826.496 63.135 821.736 67.405 815.646 70.485C809.556 73.495 802.521 75 794.541 75H761.151ZM778.161 61.035H793.701C798.601 61.035 802.836 60.125 806.406 58.305C810.046 56.415 812.846 53.755 814.806 50.325C816.836 46.895 817.851 42.87 817.851 38.25C817.851 33.56 816.836 29.535 814.806 26.175C812.846 22.745 810.046 20.12 806.406 18.3C802.836 16.41 798.601 15.465 793.701 15.465H778.161V61.035ZM837.213 75L869.973 1.49999H886.773L919.638 75H901.788L874.908 10.11H881.628L854.643 75H837.213ZM853.593 59.25L858.108 46.335H895.908L900.528 59.25H853.593ZM941.022 75V44.97L944.907 55.26L912.567 1.49999H930.627L955.407 42.765H945.012L969.897 1.49999H986.592L954.252 55.26L958.032 44.97V75H941.022Z" fill="#222222"/>
</svg>
