<svg width="303" height="250" viewBox="0 0 303 250" fill="none" xmlns="http://www.w3.org/2000/svg">
<path d="M0.0390639 200.4C0.0390639 189.733 2.70573 169.067 8.03906 138.4C13.6391 107.733 19.3724 79.7333 25.2391 54.4L4.43906 22.4C37.7724 7.46666 61.1057 -9.53674e-06 74.4391 -9.53674e-06C88.0391 -9.53674e-06 94.8391 8.53333 94.8391 25.6C94.8391 34.9333 90.4391 54.4 81.6391 84L85.6391 86C104.839 28.6667 128.706 -9.53674e-06 157.239 -9.53674e-06C170.306 -9.53674e-06 180.306 3.99999 187.239 12C194.172 20 197.639 28.9333 197.639 38.8C197.639 53.4667 192.172 66 181.239 76.4C170.306 86.8 153.906 92 132.039 92C98.9724 92 82.4391 126 82.4391 194C82.4391 210.533 85.2391 222.667 90.8391 230.4C74.3057 243.467 59.1057 250 45.2391 250C15.1057 250 0.0390639 233.467 0.0390639 200.4ZM253.758 250C240.691 250 230.024 246 221.758 238C213.758 229.733 209.758 219.333 209.758 206.8C209.758 194 214.691 182.533 224.558 172.4C234.424 162.267 245.891 157.2 258.958 157.2C272.024 157.2 282.558 161.333 290.558 169.6C298.824 177.6 302.958 188 302.958 200.8C302.958 213.333 298.024 224.667 288.158 234.8C278.291 244.933 266.824 250 253.758 250Z" fill="#5FB9BE"/>
</svg>
