<svg width="798" height="130" viewBox="0 0 798 130" fill="none" xmlns="http://www.w3.org/2000/svg">
<path d="M0.25586 111.15C0.25586 107.15 1.25586 99.4 3.25586 87.9C5.35586 76.4 7.50586 65.9 9.70586 56.4L1.90586 44.4C14.4059 38.8 23.1559 36 28.1559 36C33.2559 36 35.8059 39.2 35.8059 45.6C35.8059 49.1 34.1559 56.4 30.8559 67.5L32.3559 68.25C39.5559 46.75 48.5059 36 59.2059 36C64.1059 36 67.8559 37.5 70.4559 40.5C73.0559 43.5 74.3559 46.85 74.3559 50.55C74.3559 56.05 72.3059 60.75 68.2059 64.65C64.1059 68.55 57.9559 70.5 49.7559 70.5C37.3559 70.5 31.1559 83.25 31.1559 108.75C31.1559 114.95 32.2059 119.5 34.3059 122.4C28.1059 127.3 22.4059 129.75 17.2059 129.75C5.90586 129.75 0.25586 123.55 0.25586 111.15ZM121.05 129.75C107.35 129.75 96.7504 126.2 89.2504 119.1C81.8504 112 78.1504 102.4 78.1504 90.3C78.1504 74.2 83.6504 61.15 94.6504 51.15C105.75 41.05 119.65 36 136.35 36C145.65 36 152.7 38.1 157.5 42.3C162.3 46.4 164.7 51.85 164.7 58.65C164.7 67.95 160.15 75.7 151.05 81.9C142.05 88 128.1 91.1 109.2 91.2C109.5 97.6 110.95 102.65 113.55 106.35C116.15 109.95 119.4 111.75 123.3 111.75C127.2 111.75 130.55 110.45 133.35 107.85C136.25 105.25 137.7 101 137.7 95.1C152.3 95.1 159.6 98.55 159.6 105.45C159.6 111.35 156 116.9 148.8 122.1C141.6 127.2 132.35 129.75 121.05 129.75ZM133.8 53.55C128.7 53.55 124 56.1 119.7 61.2C115.5 66.3 112.45 72.3 110.55 79.2C120.55 78.4 128.05 76.15 133.05 72.45C138.15 68.65 140.7 64.65 140.7 60.45C140.7 58.45 140.05 56.8 138.75 55.5C137.55 54.2 135.9 53.55 133.8 53.55ZM184.234 109.5C184.234 109.5 184.434 95.75 184.834 68.25C184.834 56.65 182.134 48.05 176.734 42.45C181.934 38.15 187.634 36 193.834 36C201.934 36 207.434 39.6 210.334 46.8C212.834 53 214.084 62.4 214.084 75C214.084 87.5 213.834 99.65 213.334 111.45H218.434C233.634 79.55 241.234 58.8 241.234 49.2C241.234 46.9 240.784 44.65 239.884 42.45C247.284 38.15 253.984 36 259.984 36C267.784 36 271.684 40.7 271.684 50.1C271.684 54.4 270.584 59.8 268.384 66.3C266.184 72.7 262.784 81 258.184 91.2C253.684 101.3 251.334 106.55 251.134 106.95L253.084 115.65C248.884 119.45 242.884 122.75 235.084 125.55C227.284 128.35 219.034 129.75 210.334 129.75C201.634 129.75 195.084 128.2 190.684 125.1C186.384 121.9 184.234 116.7 184.234 109.5ZM332.153 12.3C332.153 16.1 330.153 19.4 326.153 22.2C322.153 24.9 317.603 26.25 312.503 26.25C307.403 26.25 303.353 25.25 300.353 23.25C297.453 21.25 296.003 18.55 296.003 15.15C296.003 10.55 298.153 6.94999 302.453 4.34999C306.753 1.75 311.303 0.449998 316.103 0.449998C320.903 0.449998 324.753 1.45 327.653 3.45C330.653 5.44999 332.153 8.39999 332.153 12.3ZM302.903 129.75C296.703 129.75 292.203 128.2 289.403 125.1C286.603 122 285.203 117.3 285.203 111C285.203 104.6 288.403 87.55 294.803 59.85L286.403 47.25C298.903 39.75 308.753 36 315.953 36C320.053 36 322.953 36.9 324.653 38.7C326.353 40.4 327.203 43.2 327.203 47.1C327.203 48.6 325.353 57.4 321.653 73.5C317.953 89.6 316.103 101.1 316.103 108C316.103 114.9 317.653 119.7 320.753 122.4C315.153 127.3 309.203 129.75 302.903 129.75ZM383.257 129.75C369.557 129.75 358.957 126.2 351.457 119.1C344.057 112 340.357 102.4 340.357 90.3C340.357 74.2 345.857 61.15 356.857 51.15C367.957 41.05 381.857 36 398.557 36C407.857 36 414.907 38.1 419.707 42.3C424.507 46.4 426.907 51.85 426.907 58.65C426.907 67.95 422.357 75.7 413.257 81.9C404.257 88 390.307 91.1 371.407 91.2C371.707 97.6 373.157 102.65 375.757 106.35C378.357 109.95 381.607 111.75 385.507 111.75C389.407 111.75 392.757 110.45 395.557 107.85C398.457 105.25 399.907 101 399.907 95.1C414.507 95.1 421.807 98.55 421.807 105.45C421.807 111.35 418.207 116.9 411.007 122.1C403.807 127.2 394.557 129.75 383.257 129.75ZM396.007 53.55C390.907 53.55 386.207 56.1 381.907 61.2C377.707 66.3 374.657 72.3 372.757 79.2C382.757 78.4 390.257 76.15 395.257 72.45C400.357 68.65 402.907 64.65 402.907 60.45C402.907 58.45 402.257 56.8 400.957 55.5C399.757 54.2 398.107 53.55 396.007 53.55ZM446.591 112.65C446.891 90.85 447.041 76.05 447.041 68.25C447.041 56.65 444.341 48.05 438.941 42.45C444.141 38.15 449.841 36 456.041 36C463.741 36 469.041 39.25 471.941 45.75C474.841 52.15 476.291 61.75 476.291 74.55C476.291 87.35 476.041 99.65 475.541 111.45H480.641C488.941 97.15 493.941 85.95 495.641 77.85C495.541 72.75 494.791 66.9 493.391 60.3C492.091 53.6 490.641 48.9 489.041 46.2C490.541 44.3 492.841 42.75 495.941 41.55C499.041 40.25 502.491 39.6 506.291 39.6C510.091 39.6 513.591 40.75 516.791 43.05C520.091 45.35 521.741 48.75 521.741 53.25C521.741 56.05 521.291 58.7 520.391 61.2C519.491 63.7 518.591 66.3 517.691 69C516.791 71.6 516.041 73.75 515.441 75.45L514.841 111.45H519.941C525.641 100.45 530.841 88.9 535.541 76.8C540.341 64.7 542.741 55.5 542.741 49.2C542.741 46.9 542.291 44.65 541.391 42.45C548.191 38.15 554.741 36 561.041 36C569.241 36 573.341 40.7 573.341 50.1C573.341 54.4 572.241 59.8 570.041 66.3C567.841 72.7 564.441 81 559.841 91.2C555.341 101.3 552.991 106.55 552.791 106.95L554.891 115.65C550.991 118.65 545.091 121.75 537.191 124.95C529.391 128.15 522.241 129.75 515.741 129.75C505.341 129.75 499.091 125.2 496.991 116.1C487.591 125.2 477.641 129.75 467.141 129.75C461.341 129.75 456.441 128.45 452.441 125.85C448.541 123.15 446.591 118.75 446.591 112.65ZM626.714 129.75C613.014 129.75 602.414 126.2 594.914 119.1C587.514 112 583.814 102.4 583.814 90.3C583.814 74.2 589.314 61.15 600.314 51.15C611.414 41.05 625.314 36 642.014 36C651.314 36 658.364 38.1 663.164 42.3C667.964 46.4 670.364 51.85 670.364 58.65C670.364 67.95 665.814 75.7 656.714 81.9C647.714 88 633.764 91.1 614.864 91.2C615.164 97.6 616.614 102.65 619.214 106.35C621.814 109.95 625.064 111.75 628.964 111.75C632.864 111.75 636.214 110.45 639.014 107.85C641.914 105.25 643.364 101 643.364 95.1C657.964 95.1 665.264 98.55 665.264 105.45C665.264 111.35 661.664 116.9 654.464 122.1C647.264 127.2 638.014 129.75 626.714 129.75ZM639.464 53.55C634.364 53.55 629.664 56.1 625.364 61.2C621.164 66.3 618.114 72.3 616.214 79.2C626.214 78.4 633.714 76.15 638.714 72.45C643.814 68.65 646.364 64.65 646.364 60.45C646.364 58.45 645.714 56.8 644.414 55.5C643.214 54.2 641.564 53.55 639.464 53.55ZM683.898 111.15C683.898 107.15 684.898 99.4 686.898 87.9C688.998 76.4 691.148 65.9 693.348 56.4L685.548 44.4C698.048 38.8 706.798 36 711.798 36C716.898 36 719.448 39.2 719.448 45.6C719.448 49.1 717.798 56.4 714.498 67.5L715.998 68.25C723.198 46.75 732.148 36 742.848 36C747.748 36 751.498 37.5 754.098 40.5C756.698 43.5 757.998 46.85 757.998 50.55C757.998 56.05 755.948 60.75 751.848 64.65C747.748 68.55 741.598 70.5 733.398 70.5C720.998 70.5 714.798 83.25 714.798 108.75C714.798 114.95 715.848 119.5 717.948 122.4C711.748 127.3 706.048 129.75 700.848 129.75C689.548 129.75 683.898 123.55 683.898 111.15ZM779.043 129.75C774.143 129.75 770.143 128.25 767.043 125.25C764.043 122.15 762.543 118.25 762.543 113.55C762.543 108.75 764.393 104.45 768.093 100.65C771.793 96.85 776.093 94.95 780.993 94.95C785.893 94.95 789.843 96.5 792.843 99.6C795.943 102.6 797.493 106.5 797.493 111.3C797.493 116 795.643 120.25 791.943 124.05C788.243 127.85 783.943 129.75 779.043 129.75Z" fill="#5FB9BE"/>
</svg>
