<svg width="1141" height="77" viewBox="0 0 1141 77" fill="none" xmlns="http://www.w3.org/2000/svg">
<path d="M0.214024 75V1.49999H32.029C38.609 1.49999 44.279 2.585 49.039 4.755C53.799 6.85499 57.474 9.9 60.064 13.89C62.654 17.88 63.949 22.64 63.949 28.17C63.949 33.63 62.654 38.355 60.064 42.345C57.474 46.265 53.799 49.275 49.039 51.375C44.279 53.475 38.609 54.525 32.029 54.525H9.66402L17.224 47.07V75H0.214024ZM46.939 75L28.564 48.33H46.729L65.314 75H46.939ZM17.224 48.96L9.66402 40.98H31.084C36.334 40.98 40.254 39.86 42.844 37.62C45.434 35.31 46.729 32.16 46.729 28.17C46.729 24.11 45.434 20.96 42.844 18.72C40.254 16.48 36.334 15.36 31.084 15.36H9.66402L17.224 7.275V48.96ZM93.0709 31.11H128.456V44.34H93.0709V31.11ZM94.3309 61.35H134.336V75H77.4259V1.49999H132.971V15.15H94.3309V61.35ZM168.895 75L137.185 1.49999H155.56L183.28 66.6H172.465L200.605 1.49999H217.51L185.695 75H168.895ZM223.647 75V1.49999H240.657V75H223.647ZM273.745 31.11H309.13V44.34H273.745V31.11ZM275.005 61.35H315.01V75H258.1V1.49999H313.645V15.15H275.005V61.35ZM345.159 75L321.114 1.49999H338.754L359.649 66.6H350.829L372.669 1.49999H388.419L409.419 66.6H400.914L422.334 1.49999H438.609L414.564 75H396.294L377.709 17.88H382.539L363.429 75H345.159ZM515.079 76.26C509.269 76.26 503.879 75.315 498.909 73.425C494.009 71.535 489.739 68.875 486.099 65.445C482.529 62.015 479.729 57.99 477.699 53.37C475.739 48.75 474.759 43.71 474.759 38.25C474.759 32.79 475.739 27.75 477.699 23.13C479.729 18.51 482.564 14.485 486.204 11.055C489.844 7.625 494.114 4.96499 499.014 3.07499C503.914 1.185 509.234 0.239999 514.974 0.239999C520.784 0.239999 526.104 1.185 530.934 3.07499C535.834 4.96499 540.069 7.625 543.639 11.055C547.279 14.485 550.114 18.51 552.144 23.13C554.174 27.68 555.189 32.72 555.189 38.25C555.189 43.71 554.174 48.785 552.144 53.475C550.114 58.095 547.279 62.12 543.639 65.55C540.069 68.91 535.834 71.535 530.934 73.425C526.104 75.315 520.819 76.26 515.079 76.26ZM514.974 61.77C518.264 61.77 521.274 61.21 524.004 60.09C526.804 58.97 529.254 57.36 531.354 55.26C533.454 53.16 535.064 50.675 536.184 47.805C537.374 44.935 537.969 41.75 537.969 38.25C537.969 34.75 537.374 31.565 536.184 28.695C535.064 25.825 533.454 23.34 531.354 21.24C529.324 19.14 526.909 17.53 524.109 16.41C521.309 15.29 518.264 14.73 514.974 14.73C511.684 14.73 508.639 15.29 505.839 16.41C503.109 17.53 500.694 19.14 498.594 21.24C496.494 23.34 494.849 25.825 493.659 28.695C492.539 31.565 491.979 34.75 491.979 38.25C491.979 41.68 492.539 44.865 493.659 47.805C494.849 50.675 496.459 53.16 498.489 55.26C500.589 57.36 503.039 58.97 505.839 60.09C508.639 61.21 511.684 61.77 514.974 61.77ZM583.723 34.575H619.003V48.225H583.723V34.575ZM584.983 75H567.973V1.49999H623.518V15.15H584.983V75ZM679.995 75V15.36H656.475V1.49999H720.525V15.36H697.005V75H679.995ZM780.077 1.49999H797.087V75H780.077V1.49999ZM746.687 75H729.677V1.49999H746.687V75ZM781.337 44.865H745.427V30.48H781.337V44.865ZM830.122 31.11H865.507V44.34H830.122V31.11ZM831.382 61.35H871.387V75H814.477V1.49999H870.022V15.15H831.382V61.35ZM914.657 75V1.49999H948.047C956.027 1.49999 963.062 3.04 969.152 6.12C975.242 9.13 980.002 13.365 983.432 18.825C986.862 24.285 988.577 30.76 988.577 38.25C988.577 45.67 986.862 52.145 983.432 57.675C980.002 63.135 975.242 67.405 969.152 70.485C963.062 73.495 956.027 75 948.047 75H914.657ZM931.667 61.035H947.207C952.107 61.035 956.342 60.125 959.912 58.305C963.552 56.415 966.352 53.755 968.312 50.325C970.342 46.895 971.357 42.87 971.357 38.25C971.357 33.56 970.342 29.535 968.312 26.175C966.352 22.745 963.552 20.12 959.912 18.3C956.342 16.41 952.107 15.465 947.207 15.465H931.667V61.035ZM990.72 75L1023.48 1.49999H1040.28L1073.15 75H1055.3L1028.42 10.11H1035.14L1008.15 75H990.72ZM1007.1 59.25L1011.62 46.335H1049.42L1054.04 59.25H1007.1ZM1094.53 75V44.97L1098.41 55.26L1066.07 1.49999H1084.13L1108.91 42.765H1098.52L1123.4 1.49999H1140.1L1107.76 55.26L1111.54 44.97V75H1094.53Z" fill="#222222"/>
</svg>
